PathFileType	4	(X/Y/Z)	E:\Qualisys_Data\Carbon_Farble_Plate\Data\Amateur_Runner\S2\T1\S2T1V22_c3d.trc
DataRate	CameraRate	NumFrames	NumMarkers	Units	OrigDataRate	OrigDataStartFrame	OrigNumFrames
200.000000	200.000000	4	39	mm	200.000000	122	327
Frame#	Time	LSHO			RSHO			LICST			RICST			LASIS			LHEEL			RASIS			LTROC			RTROC			SACR			LTH1			LSK4			LTH2			LTH3			RHM5			LSK2			LTH4			RTH1			LTOE			RTH2			RTH3			RTH4			LLEP			RLEP			LSK1			LSK3			RSK1			LHM5			RSK2			LFT1			RSK3			RSK4			LLME			RLME			RTOE			RHEEL			RFT1			RFT2			LFT2			
		X1	Y1	Z1	X2	Y2	Z2	X3	Y3	Z3	X4	Y4	Z4	X5	Y5	Z5	X6	Y6	Z6	X7	Y7	Z7	X8	Y8	Z8	X9	Y9	Z9	X10	Y10	Z10	X11	Y11	Z11	X12	Y12	Z12	X13	Y13	Z13	X14	Y14	Z14	X15	Y15	Z15	X16	Y16	Z16	X17	Y17	Z17	X18	Y18	Z18	X19	Y19	Z19	X20	Y20	Z20	X21	Y21	Z21	X22	Y22	Z22	X23	Y23	Z23	X24	Y24	Z24	X25	Y25	Z25	X26	Y26	Z26	X27	Y27	Z27	X28	Y28	Z28	X29	Y29	Z29	X30	Y30	Z30	X31	Y31	Z31	X32	Y32	Z32	X33	Y33	Z33	X34	Y34	Z34	X35	Y35	Z35	X36	Y36	Z36	X37	Y37	Z37	X38	Y38	Z38	X39	Y39	Z39	

123	0.61	-1066.105224609375	1417.233154296875	-495.4024353027344	-1065.445556640625	1415.20751953125	-178.4085693359375	-1154.675170898438	963.2670288085938	-454.0573425292969	-1113.831420898438	955.917236328125	-151.7782440185547	-1096.708984375	914.3026123046876	-444.6119689941406	-1478.309448242188	140.9032135009766	-313.9184265136719	-1058.167358398438	908.5531005859376	-183.8032836914062	-1234.800048828125	851.218994140625	-438.5490112304688	-1194.337890625	851.9281005859375	-138.8780364990234	-1220.998901367188	1006.117980957031	-293.6275024414062	-1124.100219726562	598.566650390625	-456.5074157714844	-1343.719360351562	290.3834228515625	-409.8560180664062	-1204.994018554688	600.3750610351562	-450.9826965332031	-1126.344482421875	497.188720703125	-431.314697265625	-1313.588134765625	281.4494018554688	-136.2450408935547	-1283.831176757812	368.7491149902344	-431.5836181640625	-1209.274658203125	503.4385986328125	-423.7515869140625	-954.126220703125	663.3259887695312	-125.3500442504883	-1257.718505859375	64.96539306640625	-329.5325927734375	-1024.684936523438	627.199951171875	-120.0392074584961	-908.5167236328124	572.33642578125	-136.5691223144531	-983.397705078125	538.5880126953125	-135.4648284912109	-1176.180908203125	453.6738891601562	-426.6255493164062	-946.7906494140624	525.5888061523438	-128.4594573974609	-1220.798706054688	322.5091247558594	-419.8329467773438	-1280.073608398438	244.1788482666016	-401.9718322753906	-1019.766235351562	450.711181640625	-137.3304901123047	-1311.7685546875	59.42491149902344	-393.7101745605469	-1040.121215820312	529.1874389648438	-130.3874359130859	-1475.141967773438	111.136360168457	-285.1862487792969	-1118.678833007812	426.06884765625	-147.4330596923828	-1135.275634765625	504.2583923339844	-145.2783203125	-1416.170654296875	132.5491638183594	-370.3693237304688	-1305.797119140625	416.8189086914062	-175.5281219482422	-1274.607421875	229.8150634765625	-191.5253143310547	-1337.11572265625	462.7214965820312	-237.2084503173828	-1356.53564453125	437.7089538574219	-267.7547607421875	-1363.213623046875	456.5707092285156	-213.7137908935547	-1484.157592773438	111.4021759033203	-337.1869201660156
124	0.615	-1044.631591796875	1422.741088867188	-493.8779296875	-1048.11376953125	1419.993041992188	-177.4654541015625	-1132.467163085938	967.6311645507812	-455.0563049316406	-1093.342163085938	961.6240234375	-152.0959167480469	-1075.853881835938	917.9957275390624	-444.6522216796875	-1473.155029296875	147.62890625	-314.7262573242188	-1037.6298828125	914.906982421875	-184.1668395996094	-1214.623046875	855.6680297851562	-437.9117126464844	-1172.733276367188	858.2271118164062	-137.2423400878906	-1200.330932617188	1010.404418945312	-295.0704956054688	-1110.725463867188	602.1904907226562	-455.8102111816406	-1338.240600585938	297.4145812988281	-410.1041870117188	-1192.267700195312	607.1928100585938	-449.9854125976562	-1116.625854492188	501.0422668457031	-431.0852661132812	-1273.269897460938	270.4973449707031	-135.4465789794922	-1278.197998046875	375.4458923339844	-431.7331237792969	-1199.510131835938	510.0705871582031	-424.2262268066406	-931.2259521484376	671.8179931640625	-126.2058334350586	-1257.283203125	65.28742218017578	-329.8294677734375	-1000.982116699219	634.4180908203125	-121.0863647460938	-883.6929321289062	582.2335815429688	-138.5095520019531	-958.3552856445312	546.2906494140625	-137.2715148925781	-1168.840698242188	459.1102905273438	-427.1410827636719	-921.5411376953124	533.4517211914062	-131.0379943847656	-1215.98876953125	329.20654296875	-421.8400268554688	-1274.985961914062	250.7013549804688	-404.1268005371094	-991.4451293945312	454.9520568847656	-138.5945434570312	-1310.67041015625	60.55472564697266	-394.0380859375	-1015.038024902344	531.97998046875	-132.5725708007812	-1470.827026367188	118.5322570800781	-286.3887023925781	-1088.535400390625	425.5312194824219	-147.9196472167969	-1109.144653320312	502.2442016601562	-145.8358001708984	-1411.624389648438	138.587890625	-371.3013305664062	-1275.486694335938	405.7948913574219	-175.4208374023438	-1231.901123046875	221.6751403808594	-190.6065979003906	-1310.346313476562	449.9416809082031	-236.6001281738281	-1327.652954101562	422.8302307128906	-267.2183227539062	-1335.896118164062	441.9092712402344	-212.8501434326172	-1479.92041015625	117.8539047241211	-337.9620666503906
125	0.62	-1023.16357421875	1428.498657226562	-492.384765625	-1030.882446289062	1424.971435546875	-176.7143096923828	-1109.963745117188	971.46875	-455.0944213867188	-1072.964477539062	967.9541625976562	-152.2799377441406	-1054.329345703125	921.6707763671876	-444.1755065917969	-1467.253784179688	154.9678039550781	-316.0336303710938	-1017.451416015625	920.8822021484376	-184.2039337158203	-1194.594970703125	860.6443481445312	-437.6582641601562	-1150.6103515625	864.692138671875	-135.92626953125	-1179.67626953125	1015.231994628906	-296.1328735351562	-1096.864013671875	606.1885375976562	-455.5428161621094	-1332.121826171875	305.8251953125	-411.0043334960938	-1178.190673828125	614.32568359375	-449.1169738769531	-1106.41552734375	505.0874633789062	-430.9259948730469	-1233.301025390625	260.5379333496094	-134.3806762695312	-1271.591552734375	382.8445434570312	-432.3439636230469	-1189.531982421875	517.3404541015625	-424.4021911621094	-908.2764892578124	680.0787353515625	-127.0480041503906	-1255.84814453125	65.19474029541016	-329.6218566894531	-977.2271118164062	641.4698486328125	-122.2662048339844	-859.6661987304688	591.226318359375	-139.7973480224609	-932.4000244140624	554.645263671875	-136.11962890625	-1160.433837890625	465.1553955078125	-428.0812683105469	-896.2804565429688	541.8305053710938	-133.0086822509766	-1210.2177734375	335.6555480957031	-424.1423950195312	-1269.67236328125	257.3837890625	-406.2611999511719	-962.812255859375	459.1172790527344	-139.6178131103516	-1309.879638671875	61.53525543212891	-393.77880859375	-990.6497192382812	534.4763793945312	-134.2918243408203	-1465.33544921875	126.3438873291016	-287.5548095703125	-1058.550537109375	424.090576171875	-148.7246246337891	-1083.206420898438	499.7726745605469	-145.9810333251953	-1405.848999023438	145.1251525878906	-372.7384643554688	-1244.491943359375	394.90771484375	-174.2958679199219	-1189.169189453125	214.3014678955078	-190.1443939208984	-1282.417236328125	436.5834655761719	-235.5662384033203	-1300.0263671875	410.7227783203125	-266.723388671875	-1307.239135742188	427.3681945800781	-211.8384399414062	-1475.080322265625	125.3968887329102	-339.1795043945312
126	0.625	-1001.542724609375	1434.40625	-491.0724792480469	-1013.509460449219	1429.973266601562	-176.3993682861328	-1087.162109375	975.6290893554688	-455.0298461914062	-1052.614501953125	974.0543212890624	-152.4502258300781	-1032.710571289062	925.6988525390624	-444.15380859375	-1461.131469726562	164.1096343994141	-318.8592529296875	-997.0324096679688	927.0254516601562	-184.2088775634766	-1173.274047851562	865.4380493164062	-437.1683654785156	-1128.694213867188	871.6328735351562	-133.9363861083984	-1158.703735351562	1019.499389648438	-297.4274291992188	-1082.530395507812	610.3955688476562	-455.1625671386719	-1325.377685546875	314.0422973632812	-412.1463928222656	-1164.221435546875	621.94775390625	-448.9329223632812	-1095.722412109375	509.833740234375	-431.0331726074219	-1192.315795898438	250.7529754638672	-133.112548828125	-1264.271240234375	391.0021057128906	-433.5030517578125	-1178.400634765625	524.8768920898438	-425.3373718261719	-885.2066040039062	687.9674682617188	-127.9738845825195	-1254.437133789062	65.20734405517578	-330.3091125488281	-953.5722045898438	648.8734741210938	-122.9230804443359	-835.4298706054688	600.1494140625	-141.6107482910156	-907.6986083984376	562.2752075195312	-137.392333984375	-1151.154541015625	471.7294921875	-429.3301086425781	-871.477294921875	549.6858520507812	-134.7671966552734	-1203.633422851562	343.0833740234375	-426.2059020996094	-1264.226440429688	265.6273803710938	-408.9382019042969	-935.2399291992188	462.3990173339844	-140.5589447021484	-1307.924438476562	62.05217361450195	-393.960693359375	-966.7515869140624	536.4508666992188	-135.3643035888672	-1460.33056640625	135.5789489746094	-288.896240234375	-1028.87353515625	422.7557983398438	-149.3905944824219	-1057.44873046875	497.3636474609375	-146.4052734375	-1399.213134765625	151.5458984375	-374.864013671875	-1213.1435546875	383.4830322265625	-174.1768493652344	-1146.236206054688	207.0724182128906	-190.1622772216797	-1254.560546875	423.4305114746094	-232.7905578613281	-1269.922119140625	395.3615417480469	-266.1204833984375	-1278.474365234375	411.9398193359375	-209.8682250976562	-1468.968627929688	133.7454528808594	-340.8025817871094
